<?xml version="1.0" encoding="UTF-8"?>
<svg width="1000px" height="184px" viewBox="0 0 1000 184" version="1.1" xmlns="http://www.w3.org/2000/svg" xmlns:xlink="http://www.w3.org/1999/xlink">
    <title>disney-hotstar-white</title>
    <g id="Page-1" stroke="none" stroke-width="1" fill="none" fill-rule="evenodd">
        <g id="disney-hotstar-white" transform="translate(0.000010, 0.626329)" fill="#FFFFFF" fill-rule="nonzero">
            <path d="M909.438486,52.5140988 C920.349151,52.5140988 929.513333,56.5595615 935.311582,65.0505725 L935.578417,65.0505725 L935.578417,54.5399974 L949.594568,54.5399974 L949.594568,129.19984 L935.578417,129.19984 L935.578417,117.609654 L935.311582,117.609654 C930.053125,126.500766 920.61591,131.086013 909.971966,131.086013 C888.144326,131.086013 870.355752,114.643821 870.355752,93.0829011 C870.355752,69.2293693 887.471116,52.5140988 909.438486,52.5140988 L909.438486,52.5140988 Z M686.602153,52.5140988 C707.216792,52.5140988 726.624779,68.6895394 726.358058,92.4097295 C726.085176,112.744948 708.721951,131.816369 684.119004,131.060614 C663.256654,130.42554 645.525265,112.497276 645.766588,91.6285881 C646.033423,69.1150386 663.86633,52.5140988 686.602153,52.5140988 Z M799.53814,52.5140988 C811.941265,52.5140988 822.04534,61.1448087 822.45179,74.3480968 L808.435639,74.3480968 C807.76243,68.9626481 804.663255,65.3236433 798.864969,65.3236433 C793.47317,65.3236433 790.107236,68.9626481 790.107236,73.2684748 C790.107236,79.6065535 796.585044,81.4927267 803.990046,83.7853503 C814.500609,87.0179046 824.204622,93.3496224 824.204622,107.23247 C824.204622,121.648759 813.687709,131.086013 799.138077,131.086013 C785.661718,131.086013 772.718802,121.92183 772.718802,104.666737 L786.74134,104.666737 C787.414512,113.70389 791.99341,118.282825 799.404798,118.282825 C805.876219,118.282825 810.188433,114.104029 810.188433,108.039021 C810.188433,102.920255 806.282707,99.5543594 797.518625,96.7219058 C779.190222,90.9236306 776.091085,82.9724873 776.091085,74.4814764 C776.091085,61.2718386 787.274783,52.5140988 799.53814,52.5140988 Z M566.572107,29.4734602 C574.313902,29.4734602 580.588485,35.7480278 580.588485,43.4896302 L580.588485,62.4911898 L580.861367,62.4911898 C585.306922,55.886371 592.451552,52.5204598 601.749114,52.5204598 C619.53765,52.5204598 632.880667,63.8375331 632.880667,84.3251802 L632.880667,129.19984 L618.864478,129.19984 L618.864478,88.6373566 C618.864478,72.601615 612.666129,65.3236433 600.269392,65.3236433 C587.999647,65.3236433 580.588296,74.2147173 580.588296,88.7707361 L580.588296,129.19984 L566.572107,129.19984 L566.572107,29.4734602 Z M756.276609,29.4734602 L756.276609,54.5399974 L768.546354,54.5399974 L768.546354,67.3431961 L756.270259,67.3431961 L756.270259,129.19984 C748.535003,129.19984 742.25407,122.925257 742.25407,115.183651 L742.25407,67.3431961 L736.468521,67.3431961 L736.468521,54.5399974 L742.25407,54.5399974 L742.25407,29.4734602 L756.270259,29.4734602 L756.276609,29.4734602 Z M853.63414,29.4734602 L853.63414,54.5399974 L865.903847,54.5399974 L865.903847,67.3431961 L853.640489,67.3431961 L853.640489,129.19984 C845.898883,129.19984 839.624301,122.925257 839.624301,115.183651 L839.624301,67.3431961 L833.832401,67.3431961 L833.832401,54.5399974 L839.624301,54.5399974 L839.624301,29.4734602 L853.640489,29.4734602 L853.63414,29.4734602 Z M1000.00077,52.5204598 L1000.00077,66.9367457 C987.870675,67.3431961 981.672325,74.7481976 981.672325,87.2909755 L981.672325,115.183651 C981.672325,122.925257 975.397742,129.19984 967.656136,129.19984 L967.656136,54.5399974 L980.732394,54.5399974 L980.732394,61.2718386 L980.999229,61.2718386 C984.365125,56.2928138 990.163412,53.0602633 1000.00077,52.5204598 L1000.00077,52.5204598 Z M685.928982,65.3236433 C669.855142,65.3236433 656.258103,80.914837 660.595678,98.290561 C663.542462,110.071273 674.281612,118.606731 686.424327,118.276476 C700.758033,117.876375 712.335519,106.425918 712.335519,91.6031897 C712.335519,77.0408212 700.611992,65.3236433 685.928982,65.3236433 L685.928982,65.3236433 Z M909.838625,65.3236433 C895.041245,65.3236433 883.101793,78.6856716 884.473573,94.4737295 C885.610341,107.492841 896.247897,118.016104 909.305144,118.276476 C924.115147,118.575058 935.851412,106.324325 935.851412,92.0032904 C935.851412,77.4472716 925.334499,65.3236433 909.838625,65.3236433 L909.838625,65.3236433 Z" id="path2"></path>
            <path d="M241.639661,89.3643109 C241.934087,89.4047519 241.997961,89.4164684 242.284751,89.4538857 C247.07825,90.1053629 251.788713,90.9692495 255.394231,92.5809043 C258.735749,94.0563185 260.694414,95.9234429 262.482811,99.251657 C265.202105,104.298536 265.379365,111.369011 262.921916,116.720331 C261.0862,120.702139 257.056468,124.040973 253.377513,125.810737 C249.55694,127.663008 245.792871,128.544961 241.475705,129.037811 C233.925154,129.869194 225.770408,128.304885 218.976178,125.018737 C214.956575,123.055764 210.048102,119.67543 207.572058,115.32047 C205.751195,112.13017 205.809211,107.979077 208.024468,104.9468 C211.555454,100.113918 219.118288,99.0499436 224.81449,99.251657 C229.157167,99.419846 236.976556,100.762183 241.099945,102.229093 C242.242685,102.64212 246.457652,104.284136 247.193224,105.037282 C247.711094,105.561049 248.046943,106.32217 247.814351,107.025805 C246.872266,109.907468 239.869898,111.426498 237.847888,111.731506 C232.434811,112.560734 229.626093,110.512079 223.472153,108.082334 C221.944581,107.484073 219.908701,106.82035 218.353425,106.676652 C215.559636,106.410574 212.185123,107.192936 211.651794,110.242788 C211.386849,111.814504 213.229936,113.284627 214.635617,113.902542 C217.936657,115.32047 220.62031,115.830403 223.86923,115.874057 C233.466849,116.032041 244.253016,114.451859 252.103283,108.889792 C253.177916,108.122775 254.233387,107.000255 254.244537,105.585011 C254.278553,102.727273 249.268487,100.979884 249.268487,100.979884 C243.980512,98.7752854 234.209904,97.7022775 229.176367,97.2876255 C223.894213,96.8304161 215.583032,96.1464728 213.58763,95.8526901 C211.533117,95.5593988 209.301381,95.1447846 207.522017,94.3474555 C205.734679,93.5399972 203.986232,91.7330164 203.467303,89.7338731 C202.547025,86.1299424 203.721287,81.7079708 205.722433,78.8289913 C210.967851,71.2879646 223.254981,68.4239142 232.434282,67.2864654 C241.318704,66.1809914 255.681664,66.192141 264.407989,70.8291677 C265.755126,71.5514732 266.44334,72.2231709 266.161765,73.6634354 C265.593324,76.3673094 263.561186,78.1098984 261.097879,78.8737031 C258.513778,79.6960527 253.168316,80.0164811 250.820549,80.1644118 C240.299932,80.7541692 227.586471,80.4448527 217.565696,83.1775267 C216.780613,83.4012747 215.424443,83.7672464 214.983712,84.2596054 C213.41517,85.9622826 217.895158,86.4487834 218.854817,86.6435802 C219.140172,86.7116117 219.195353,86.7214385 219.492991,86.7539424 L241.639661,89.3646511 M179.052159,42.4530646 C179.052159,42.4530646 180.76334,39.8865462 182.197255,37.9395452 C184.807964,34.3936605 189.532789,29.4761248 193.09095,26.431636 C194.179416,25.5017626 195.462679,24.4484385 195.462679,24.4484385 C195.462679,24.4484385 193.455523,24.656048 192.318112,24.8886061 C189.618509,25.4139566 185.660134,28.0449009 183.68227,29.7449097 C180.418459,32.5387364 176.829457,37.0804813 178.453331,41.1160529 C178.689174,41.6860964 179.052159,42.4530646 179.052159,42.4530646 M197.195706,47.3083137 C202.351662,46.9527735 207.181369,45.4683187 211.677873,42.9741669 C216.087636,40.5066155 222.573721,35.6950048 221.900928,30.0387302 C221.696833,28.2077607 220.497891,26.8255006 218.984682,26.1803957 C217.018005,25.3282672 215.992354,25.4655661 213.480102,26.2121437 C211.655006,26.7459944 210.832657,27.0701532 209.109192,28.0564095 C204.051164,30.9949998 196.879548,37.2841374 192.986106,42.3033235 C192.087636,43.4870564 191.177488,44.8107943 190.465312,45.718274 C190.016115,46.2776894 189.666925,46.7913046 189.710578,46.928097 C189.866295,47.497086 195.1822,47.4449285 197.195706,47.308136 M184.068122,56.9504856 C183.536418,57.5130909 182.973835,58.8692837 182.390465,59.8512919 C182.078654,60.3766198 181.501066,61.0531174 181.118918,61.3245631 C179.777073,62.3113599 178.640191,62.35713 177.344682,61.2168465 C175.52809,59.609969 174.477419,57.124873 174.402887,54.7073398 C174.363958,53.6524094 174.544997,52.4851703 174.345438,51.595787 C174.014729,50.0942828 172.512329,48.5475565 171.702263,47.1120579 C170.751107,45.4210709 169.981482,42.4723553 169.885671,40.5684901 C169.559498,34.6322205 172.688531,29.1638149 176.753375,24.850962 C180.846981,20.489648 186.202496,16.8649828 192.027013,14.3974313 C197.532688,12.0783813 205.600619,10.4975939 211.64654,12.5914937 C213.614805,13.2658559 216.356965,14.940882 217.734981,16.6957129 C218.027895,17.0597948 218.266194,17.4536556 218.566402,17.6463283 C218.835126,17.8176921 219.538307,17.8853834 220.097677,17.9880354 C222.026068,18.3222968 224.80232,19.782283 225.936556,20.7547138 C228.21512,22.7203441 229.463271,24.5992001 230.040745,27.3259591 C231.198943,32.8124612 228.039485,38.8317329 224.440884,42.4952592 C218.278969,48.8003578 212.193665,53.2335395 204.310969,56.3195502 C200.848619,57.6720239 195.456329,58.9356106 191.528304,58.5821681 C190.308348,58.4811035 189.055397,58.1595716 187.867416,58.0807949 C187.26118,58.028713 185.044865,57.4569801 184.808002,57.2957039 C184.514333,57.0700661 184.134717,56.8736365 184.068159,56.9502928 M191.108323,69.1145095 C191.348323,69.1549504 191.718301,69.262289 192.036575,69.3847457 C194.800052,70.4359835 195.936972,72.9934764 196.617703,75.8027236 C198.195315,82.326037 198.868638,96.7576224 199.131051,102.406504 C199.323806,106.646454 199.429633,110.817729 199.607384,115.008734 C199.75781,118.557824 200.041199,123.276262 199.301243,126.601263 C199.032518,127.797257 198.232468,129.188047 197.087044,129.900186 C195.775057,130.74011 192.78855,130.803984 191.147063,130.465452 C187.100852,129.62874 185.786181,127.027103 185.20867,123.025566 C183.835983,113.477459 184.49706,94.7382586 185.306937,86.8310826 C185.576418,84.2192779 186.559888,75.8511394 187.923542,72.3425283 C188.389255,71.1593095 189.380852,68.7763929 191.107983,69.1143961 M68.0162544,85.0006574 C68.0162544,85.0006574 61.9942954,85.4269881 57.8495899,85.8868432 C52.5765443,86.454755 42.6685884,88.1654448 36.949483,90.2077125 C35.234031,90.8219235 31.7493444,92.2803298 31.4464909,94.0441862 C31.1282546,95.8724948 32.2629444,97.3021389 33.5249286,98.781257 C34.2546798,99.6403436 38.3849853,103.613648 39.5431837,104.579128 C44.3978735,108.632293 54.2419553,114.88314 61.4923742,117.918592 C63.9833474,118.949043 68.1040907,120.424457 68.1040907,120.424457 C68.1040907,120.424457 67.7979489,108.691367 67.8527521,97.1339499 C67.8829883,91.0369786 68.0164056,85.0006574 68.0164056,85.0006574 M178.435151,89.6701125 C178.780222,92.8221137 177.969967,98.7818239 177.829444,99.5679657 C177.572814,101.379758 176.206591,105.559046 175.979857,106.068942 C174.877029,108.60886 173.789621,110.689981 172.637318,112.765811 C170.662629,116.319663 165.967057,121.953616 163.179618,124.364728 C152.813923,133.324211 136.767448,138.425364 123.001161,140.105666 C113.660059,141.234082 102.926579,141.068539 93.0287519,139.237055 C89.6223016,138.617515 84.5531236,137.449188 84.5531236,137.449188 C84.5531236,137.449188 84.5682418,139.476035 84.4072339,140.901408 C84.3286197,141.551827 83.8387929,143.263575 83.5641347,143.818183 C82.8445126,145.304784 81.6629189,146.071726 79.9448213,146.401754 C77.8711079,146.786586 75.6718387,146.914863 73.7556938,146.095613 C70.6095395,144.771909 69.4801033,141.828526 68.9318828,138.433792 C68.4885064,135.718769 68.0243804,130.999235 68.0243804,130.999235 C68.0243804,130.999235 65.6707552,129.88469 63.7083112,128.905339 C57.6804939,125.935348 51.9555301,122.336747 46.9470136,118.635984 C45.5594357,117.600205 39.5981381,112.607638 38.2824089,111.367991 C34.5927964,107.865238 31.2736531,104.380551 28.7486263,99.909068 C26.7856909,96.4158397 26.220387,93.3154555 27.7133759,89.6141755 C29.7721602,84.455007 37.1689223,80.5705976 42.2312215,78.3569283 C45.9469128,76.7165378 57.5005884,72.943889 62.2999458,72.2445252 C64.5668308,71.9202417 68.0829253,71.2907236 68.2990387,71.1502008 C68.3874796,71.0825473 68.448708,71.0250984 68.512204,70.9521536 C68.6229442,70.7960591 68.8096529,65.6891992 68.7733694,63.8209788 C68.7265033,61.9841662 70.1327521,49.9200428 70.5846324,47.3689373 C70.8204749,45.9893153 71.8652497,40.6784668 72.9318702,39.2844977 C73.6296843,38.3424051 74.8634733,38.4185172 75.8694324,39.0369764 C81.3740119,42.4599433 83.0463394,54.3308535 83.4556622,60.3709127 C83.7005756,64.0509252 83.8222764,69.5863835 83.8222764,69.5863835 C83.8222764,69.5863835 90.1369598,69.3996748 94.0213693,69.5096591 C97.7961346,69.5973441 101.95679,70.1930732 105.874724,70.8174134 C110.890723,71.6216591 120.667719,73.7544087 126.275064,76.5971803 C130.892399,78.9380685 135.214327,82.882081 136.614679,87.0560401 C137.915517,90.882396 137.72072,93.5303972 135.739114,96.9836759 C133.511082,100.882977 129.296682,103.781118 125.0237,104.023273 C123.752153,104.096596 118.9661,103.46069 117.493369,102.320596 C116.915857,101.866032 116.94564,101.045837 117.36222,100.489641 C117.520204,100.29424 119.757382,99.104709 121.077911,98.4106365 C121.740046,98.0508255 122.287738,97.6628192 122.80455,97.1917767 C123.90152,96.2257295 124.888846,95.1622838 124.778673,93.91572 C124.627114,92.2976778 122.914723,91.2996936 121.282837,90.6577786 C113.625779,87.6159771 98.3377787,85.0909125 90.9500496,84.6539613 C88.0582953,84.4842606 83.9450355,84.3387488 83.9450355,84.3387488 L84.8147425,125.134088 C84.8147425,125.134088 88.2153346,125.781824 90.8952464,126.216167 C92.4329472,126.449364 98.9482858,127.035833 100.679687,127.078429 C113.862642,127.426523 128.576342,126.24595 140.674534,120.536973 C145.985904,118.037496 150.858736,114.925396 154.547782,110.712583 C159.409955,105.138271 161.95626,97.5094082 161.282446,89.5410038 C160.543662,80.8386039 154.418975,70.5080591 149.528078,64.217867 C136.605419,47.599205 114.454516,33.9287219 94.9664779,25.9140146 C75.0707048,17.7369463 55.4069947,13.0328669 34.2918704,12.2451151 C28.8484814,12.0434773 16.9797067,12.3180978 10.9801225,13.9776241 C10.1231902,14.2192493 9.25930359,14.5077558 8.46359965,14.6865765 C7.83498863,14.8404411 6.84448785,15.2566238 6.57251305,15.4764411 C6.4217099,15.5983687 6.27279652,15.7670868 6.27279652,15.7670868 C6.27279652,15.7670868 6.64281226,15.9713702 6.9961225,16.1210395 C7.63165005,16.3983435 10.3067618,16.5644008 11.691165,16.8177501 C12.9297162,17.0508335 14.2193666,17.7013016 14.7298295,18.6088039 C15.2147051,19.4715907 15.2753665,20.1518112 14.6958138,20.8714219 C13.3364311,22.5246023 8.21982013,22.245711 5.96680597,21.8890974 C3.62538866,21.5159825 0.710201271,20.7995806 0.1747934,18.7610319 C-0.44637195,16.3600153 0.694251665,14.0063787 1.92641544,11.8305123 C4.40196818,7.47718823 7.94784533,5.21296399 13.1405382,3.79503644 C20.5160216,1.76553976 29.8289287,0.34655394 36.7935019,0.0804336267 C52.5567774,-0.515174559 67.475971,2.24137472 82.7490796,6.87840902 C91.4902953,9.52159137 102.934364,13.9568858 111.312594,17.9908474 C117.324462,20.8895182 126.796487,26.2200732 132.117457,29.7036977 C133.795643,30.8113147 143.61633,38.0271093 145.141747,39.2954734 C148.324109,41.8971565 152.486389,45.636795 155.500525,48.6275389 C161.331958,54.4062551 168.584985,63.2640654 172.108525,70.2946291 C172.956424,71.9781441 173.61323,73.634522 174.706988,75.5857787 C175.083429,76.2543016 176.692865,80.2526259 176.960607,81.4076118 C177.225551,82.5503519 177.6142,84.2301629 177.669003,84.2967204 C177.746862,84.9104023 178.492978,88.3455771 178.434396,89.6698101 M376.605758,80.6496653 C369.223887,82.3518133 349.811969,83.297111 349.811969,83.297111 L347.364121,90.9647897 C347.364121,90.9647897 357.064996,90.1365818 364.122206,90.873703 C364.122206,90.873703 366.408782,90.6080023 366.677544,93.469509 C366.768631,96.1382334 366.450772,99.0017925 366.450772,99.0017925 C366.450772,99.0017925 366.304505,100.73429 363.849097,101.174983 C361.188347,101.618359 342.939919,102.324111 342.939919,102.324111 L339.984858,112.318844 C339.984858,112.318844 338.886792,114.629383 341.347944,113.969931 C343.634521,113.357836 362.755302,109.769893 365.245746,110.286177 C367.91447,110.948841 370.867944,114.506964 370.014224,117.749458 C368.996549,121.768532 349.912505,133.939632 338.290684,133.090145 C338.290684,133.090145 332.183535,133.484047 327.021721,125.242069 C322.214388,117.38806 328.843642,102.516791 328.843642,102.516791 C328.843642,102.516791 325.805015,95.5745925 328.00693,93.2214964 C328.00693,93.2214964 329.317368,92.0324306 333.137374,91.7636306 L337.814842,82.0866795 C337.814842,82.0866795 332.486955,82.4532936 329.317368,78.533848 C326.364914,74.8155488 326.117431,73.1064465 328.381103,72.0797378 C330.801815,70.8842732 352.989456,66.8348874 368.257235,67.3484874 C368.257235,67.3484874 373.563314,66.827404 378.165191,76.031196 C378.166476,76.0317252 380.395377,79.7538039 376.605683,80.6495897 M319.179995,117.857515 C317.223447,122.459921 312.054678,127.371606 305.633526,124.31858 C299.294918,121.259166 289.198552,100.594826 289.198552,100.594826 C289.198552,100.594826 285.365734,92.8893515 284.628575,93.0878901 C284.628575,93.0878901 283.800404,91.583196 283.292587,100.003481 C282.764625,108.388136 283.394256,124.737465 280.049564,127.310907 C276.881034,129.891304 273.044549,128.864066 271.054968,125.849364 C269.246351,122.879373 268.493734,115.822164 269.480568,103.427506 C270.640316,91.0088967 273.525154,77.7961598 277.211063,73.6818417 C280.891604,69.595152 283.846704,72.5619299 284.998477,73.6379992 C284.998477,73.6379992 289.921878,78.1004496 298.040908,91.2040715 L299.473765,93.6279468 C299.473765,93.6279468 306.851894,106.007714 307.622578,105.978951 C307.622578,105.978951 308.225639,106.547959 308.763201,106.139203 C309.537626,105.918101 309.225211,101.948237 309.225211,101.948237 C309.225211,101.948237 307.694426,88.4565818 300.963504,65.6206764 C300.963504,65.6206764 299.945828,62.773067 300.633929,60.104902 C301.317343,57.4085039 304.020159,58.6742034 304.020159,58.6742034 C304.020159,58.6742034 314.452373,63.9195867 319.516297,80.9044055 C324.546622,97.8945799 321.16625,113.220375 319.179919,117.857402 M431.456756,107.684879 C426.707969,115.97051 413.301493,133.319978 395.484763,129.223726 C389.601172,143.491405 384.658684,157.924589 381.832354,179.521414 C381.832354,179.521414 381.211226,183.718239 377.723365,182.2604 C374.266873,181.050573 368.573317,175.303801 367.421544,167.35349 C366.182426,156.910088 370.831698,139.255688 380.334073,119.012388 C377.562621,114.506813 375.673122,108.069711 377.290609,98.9037137 C377.290609,98.9037137 379.677267,81.8826984 396.77173,66.5414449 C396.77173,66.5414449 398.820914,64.7717189 400.008933,65.3167268 C401.317746,65.8655142 400.711509,71.4041472 399.672933,74.097363 C398.594029,76.7751582 390.983837,89.9500999 390.983837,89.9500999 C390.983837,89.9500999 386.236637,98.8510271 387.572587,105.8715 C396.537928,92.0876495 416.918048,64.2921347 429.550098,73.0573504 C433.793223,76.0933315 435.749282,82.6970354 435.749282,89.8127897 C435.75166,96.0630586 434.244574,102.706145 431.456605,107.684879 M427.770205,85.8549062 C427.770205,85.8549062 427.0671,80.3748181 421.709393,86.4121976 C417.101128,91.5069629 408.789418,101.052413 402.098407,114.017666 C409.118879,113.229408 415.890243,109.420551 417.93784,107.48052 C421.266583,104.527008 429.021002,96.5138807 427.770205,85.8549062 M529.605266,84.607322 L496.952378,84.607322 C496.30143,73.5092307 494.961739,62.6985725 492.855597,51.5648365 C492.639408,50.4125039 491.636737,49.5768617 490.469506,49.5768617 L482.941783,49.5768617 C482.286564,49.5768617 481.666495,49.8712113 481.241789,50.3848264 C480.81595,50.9069644 480.649348,51.5712201 480.774451,52.2216541 C482.913588,62.9955678 484.26817,73.5997126 484.936693,84.6179425 L453.522394,84.6179425 C452.058696,84.6179425 450.869619,85.8032779 450.869619,87.261155 L450.869619,94.0505736 C450.869619,95.5116255 452.058696,96.7055027 453.522394,96.7055027 L485.386457,96.7055027 C485.405355,98.3810428 485.424252,99.8814775 485.424252,101.289276 C485.424252,111.074284 485.002155,119.134769 484.015925,128.231033 C483.938066,128.934177 484.16824,129.634107 484.644498,130.149824 C485.106469,130.669849 485.772347,130.966315 486.463206,130.966315 L493.444825,130.966315 C494.80795,130.966315 495.936328,129.941194 496.073109,128.584457 C497.02691,119.426473 497.435666,111.265906 497.435666,101.288747 C497.435666,99.8862397 497.420548,98.3804759 497.401651,96.7049736 L529.608516,96.7049736 C531.068472,96.7049736 532.260195,95.5110964 532.260195,94.0500444 L532.260195,87.2606259 C532.260195,85.7963613 531.067943,84.607322 529.607987,84.607322" id="path4541"></path>
        </g>
    </g>
</svg>