<?xml version="1.0" encoding="UTF-8"?>
<svg width="1000px" height="344px" viewBox="0 0 1000 344" version="1.1" xmlns="http://www.w3.org/2000/svg" xmlns:xlink="http://www.w3.org/1999/xlink">
    <title>disney-white</title>
    <g id="Page-1" stroke="none" stroke-width="1" fill="none" fill-rule="evenodd">
        <g id="disney-white" transform="translate(-0.001380, 0.444888)" fill="#FFFFFF" fill-rule="nonzero">
            <path d="M453.98938,167.896112 C454.54238,167.972112 454.66238,167.994112 455.20138,168.064112 C464.20738,169.288112 473.05738,170.911112 479.83138,173.939112 C486.10938,176.711112 489.78938,180.219112 493.14938,186.472112 C498.25838,195.954112 498.59138,209.238112 493.97438,219.292112 C490.52538,226.773112 482.95438,233.046112 476.04238,236.371112 C468.86438,239.851112 461.79238,241.508112 453.68138,242.434112 C439.49538,243.996112 424.17438,241.057112 411.40938,234.883112 C403.85738,231.195112 394.63538,224.844112 389.98338,216.662112 C386.56238,210.668112 386.67138,202.869112 390.83338,197.172112 C397.46738,188.092112 411.67638,186.093112 422.37838,186.472112 C430.53738,186.788112 445.22838,189.310112 452.97538,192.066112 C455.12238,192.842112 463.04138,195.927112 464.42338,197.342112 C465.39638,198.326112 466.02738,199.756112 465.59038,201.078112 C463.82038,206.492112 450.66438,209.346112 446.86538,209.919112 C436.69538,211.477112 431.41838,207.628112 419.85638,203.063112 C416.98638,201.939112 413.16138,200.692112 410.23938,200.422112 C404.99038,199.922112 398.65038,201.392112 397.64838,207.122112 C397.15038,210.075112 400.61338,212.837112 403.25438,213.998112 C409.45638,216.662112 414.49838,217.620112 420.60238,217.702112 C438.63438,217.999112 458.89938,215.030112 473.64838,204.580112 C475.66738,203.139112 477.65038,201.030112 477.67138,198.371112 C477.73538,193.002112 468.32238,189.719112 468.32238,189.719112 C458.38738,185.577112 440.03038,183.561112 430.57338,182.782115 C420.64938,181.923112 405.03438,180.638112 401.28538,180.086112 C397.42538,179.535112 393.23238,178.756112 389.88938,177.258112 C386.53138,175.741112 383.24638,172.346112 382.27138,168.590112 C380.54238,161.819112 382.74838,153.511112 386.50838,148.102112 C396.36338,133.934112 419.44838,128.553112 436.69438,126.416112 C453.38638,124.339112 480.37138,124.360112 496.76638,133.072112 C499.29738,134.429112 500.59038,135.691112 500.06138,138.397112 C498.99338,143.477112 495.17538,146.751112 490.54738,148.186112 C485.69238,149.731112 475.64938,150.333112 471.23838,150.611112 C451.47238,151.719112 427.58638,151.138112 408.75938,156.272112 C407.28438,156.693112 404.73638,157.380112 403.90838,158.305112 C400.96138,161.504112 409.37838,162.418112 411.18138,162.784112 C411.71738,162.912112 411.82138,162.930112 412.38038,162.991112 L453.98938,167.896112 M336.40038,79.7591117 C336.40038,79.7591117 339.61538,74.9371117 342.30938,71.2791117 C347.21438,64.6171117 356.09138,55.3781117 362.77638,49.6581117 C364.82138,47.9111117 367.23238,45.9321117 367.23238,45.9321117 C367.23238,45.9321117 363.46138,46.3221117 361.32438,46.7591117 C356.25238,47.7461117 348.81538,52.6891117 345.09938,55.8831117 C338.96738,61.1321117 332.22438,69.6651117 335.27538,77.2471117 C335.71838,78.3181117 336.40038,79.7591117 336.40038,79.7591117 M370.48838,88.8811117 C380.17538,88.2131117 389.24938,85.4241117 397.69738,80.7381117 C405.98238,76.1021117 418.16838,67.0621117 416.90438,56.4351117 C416.52038,52.9951117 414.26838,50.3981117 411.42538,49.1861117 C407.73038,47.5851117 405.80338,47.8431117 401.08338,49.2461117 C397.65438,50.2491117 396.10938,50.8581117 392.87138,52.7111117 C383.36838,58.2321117 369.89438,70.0481117 362.57938,79.4781117 C360.89138,81.7021117 359.18138,84.1891117 357.84338,85.8941117 C356.99938,86.9451117 356.34338,87.9101117 356.42538,88.1671117 C356.71738,89.2361117 366.70538,89.1381117 370.48838,88.8811117 M345.82438,106.997112 C344.82538,108.054112 343.76838,110.602112 342.67238,112.447112 C342.08638,113.434112 341.00138,114.705112 340.28338,115.215112 C337.76238,117.069112 335.62638,117.155112 333.19238,115.013112 C329.77938,111.994112 327.80538,107.325112 327.66538,102.783112 C327.59238,100.801112 327.93238,98.6081117 327.55738,96.9371117 C326.93638,94.1161117 324.11338,91.2101117 322.59138,88.5131117 C320.80438,85.3361117 319.35838,79.7961117 319.17838,76.2191117 C318.56538,65.0661117 324.44438,54.7921117 332.08138,46.6891117 C339.77238,38.4951117 349.83438,31.6851117 360.77738,27.0491117 C371.12138,22.6921117 386.27938,19.7221117 397.63838,23.6561117 C401.33638,24.9231117 406.48838,28.0701117 409.07738,31.3671117 C409.62738,32.0511117 410.07538,32.7911117 410.63938,33.1531117 C411.14438,33.4751117 412.46538,33.6021117 413.51638,33.7951117 C417.13938,34.4231117 422.35538,37.1661117 424.48638,38.9931117 C428.76738,42.6861117 431.11238,46.2161117 432.19738,51.3391117 C434.37338,61.6471117 428.43738,72.9561117 421.67638,79.8391117 C410.09938,91.6851117 398.66638,100.014112 383.85638,105.812112 C377.35138,108.353112 367.22038,110.727112 359.84038,110.063112 C357.54838,109.873112 355.19438,109.269112 352.96238,109.121112 C351.82338,109.023112 347.65938,107.949112 347.21438,107.646112 C346.66238,107.222112 345.94938,106.853112 345.82438,106.997112 M359.05138,129.851112 C359.50238,129.927112 360.19738,130.129112 360.79538,130.359112 C365.98738,132.334112 368.12338,137.139112 369.40238,142.417112 C372.36638,154.673112 373.63138,181.787112 374.12438,192.400112 C374.48638,200.366112 374.68538,208.203112 375.01938,216.077112 C375.30238,222.745112 375.83438,231.610112 374.44438,237.857112 C373.93938,240.104112 372.43638,242.717112 370.28438,244.055112 C367.81938,245.633112 362.20838,245.753112 359.12438,245.117112 C351.52238,243.545112 349.05238,238.657112 347.96738,231.139112 C345.38838,213.200112 346.63038,177.993112 348.15238,163.137112 C348.65838,158.230112 350.50638,142.508112 353.06838,135.916112 C353.94338,133.693112 355.80638,129.216112 359.05138,129.851112 M127.78738,159.698112 C127.78738,159.698112 116.47338,160.499112 108.68638,161.363112 C98.7793805,162.430112 80.1643805,165.644112 69.4193805,169.481112 C66.1963805,170.635112 59.6493805,173.375112 59.0803805,176.689112 C58.4823805,180.124112 60.6143805,182.810112 62.9853805,185.589112 C64.3563805,187.203112 72.1163805,194.668112 74.2923805,196.482112 C83.4133805,204.097112 101.90838,215.841112 115.53038,221.544112 C120.21038,223.480112 127.95238,226.252112 127.95238,226.252112 C127.95238,226.252112 127.37738,204.208112 127.48038,182.494112 C127.54038,171.039112 127.78738,159.698112 127.78738,159.698112 M335.24138,168.471112 C335.88938,174.393112 334.36738,185.590112 334.10338,187.067112 C333.62138,190.471112 331.05438,198.323112 330.62838,199.281112 C328.55638,204.053112 326.51338,207.963112 324.34838,211.863112 C320.63838,218.540112 311.81638,229.125112 306.57938,233.655112 C287.10438,250.488112 256.95638,260.072112 231.09238,263.229112 C213.54238,265.349112 193.37638,265.038112 174.78038,261.597112 C168.38038,260.433112 158.85638,258.238112 158.85638,258.238112 C158.85638,258.238112 158.88738,262.046112 158.58238,264.724112 C158.43438,265.946112 157.51438,269.162112 156.99838,270.204112 C155.64638,272.997112 153.42638,274.438112 150.19838,275.058112 C146.30238,275.781112 142.17038,276.022112 138.57038,274.483112 C132.65938,271.996112 130.53738,266.466112 129.50738,260.088112 C128.67438,254.987112 127.80238,246.120112 127.80238,246.120112 C127.80238,246.120112 123.38038,244.026112 119.69338,242.186112 C108.36838,236.606112 97.6123805,229.845112 88.2023805,222.892112 C85.5953805,220.946112 74.3953805,211.566112 71.9233805,209.237112 C64.9913805,202.656112 58.7553805,196.109112 54.0113805,187.708112 C50.3233805,181.145112 49.2613805,175.320112 52.0663805,168.366112 C55.9343805,158.673112 69.8313805,151.375112 79.3423805,147.216112 C86.3233805,144.134112 108.03038,137.046112 117.04738,135.732112 C121.30638,135.123112 127.91238,133.940112 128.31838,133.676112 C128.48438,133.549112 128.59938,133.441112 128.71938,133.304112 C128.92738,133.011112 129.27838,123.416112 129.21038,119.906112 C129.12238,116.455112 131.76438,93.7891117 132.61338,88.9961117 C133.05638,86.4041117 135.01938,76.4261117 137.02338,73.8071117 C138.33438,72.0371117 140.65238,72.1801117 142.54238,73.3421117 C152.88438,79.7731117 156.02638,102.076112 156.79538,113.424112 C157.25538,120.338112 157.48438,130.738112 157.48438,130.738112 C157.48438,130.738112 169.34838,130.387112 176.64638,130.594112 C183.73838,130.759112 191.55538,131.878112 198.91638,133.051112 C208.34038,134.562112 226.70938,138.569112 237.24438,143.910112 C245.91938,148.308112 254.03938,155.718112 256.67038,163.560112 C259.11438,170.749112 258.74838,175.724112 255.02538,182.212112 C250.83938,189.538112 242.92138,194.983112 234.89338,195.438112 C232.50438,195.576112 223.51238,194.381112 220.74538,192.239112 C219.66038,191.385112 219.71638,189.844112 220.49938,188.799112 C220.79638,188.432112 224.99938,186.197112 227.48038,184.893112 C228.72438,184.217112 229.75338,183.488112 230.72438,182.603112 C232.78538,180.788112 234.64038,178.790112 234.43338,176.448112 C234.14838,173.408112 230.93138,171.533112 227.86538,170.327112 C213.47938,164.612112 184.75638,159.868112 170.87638,159.047112 C165.44338,158.728112 157.71538,158.455112 157.71538,158.455112 L159.34938,235.101112 C159.34938,235.101112 165.73838,236.318112 170.77338,237.134112 C173.66238,237.572112 185.90338,238.674112 189.15638,238.754112 C213.92438,239.408112 241.56838,237.190112 264.29838,226.464112 C274.27738,221.768112 283.43238,215.921112 290.36338,208.006112 C299.49838,197.533112 304.28238,183.200112 303.01638,168.229112 C301.62838,151.879112 290.12138,132.470112 280.93238,120.652112 C256.65338,89.4291117 215.03638,63.7451117 178.42238,48.6871117 C141.04238,33.3241117 104.09838,24.4861117 64.4273805,23.0061117 C54.2003805,22.6271117 31.9013805,23.1431117 20.6293805,26.2611117 C19.0193805,26.7151117 17.3963805,27.2571117 15.9013805,27.5931117 C14.7203805,27.8821117 12.8593805,28.6641117 12.3483805,29.0771117 C12.0653805,29.3061117 11.7853805,29.6231117 11.7853805,29.6231117 C11.7853805,29.6231117 12.4803805,30.0071117 13.1443805,30.2881117 C14.3383805,30.8091117 19.3643805,31.1211117 21.9653805,31.5971117 C24.2923805,32.0351117 26.7153805,33.2571117 27.6743805,34.9621117 C28.5853805,36.5831117 28.6993805,37.8611117 27.6103805,39.2131117 C25.0563805,42.3191117 15.4433805,41.7951117 11.2103805,41.1251117 C6.81138045,40.4241117 1.33438045,39.0781117 0.328380451,35.2481117 C-0.838619549,30.7371117 1.30438045,26.3151117 3.61938045,22.2271117 C8.27038045,14.0481117 14.9323805,9.79411175 24.6883805,7.13011175 C38.5453805,3.31711175 56.0423805,0.651111745 69.1273805,0.151111745 C98.7433805,-0.967888255 126.77338,4.21111175 155.46838,12.9231117 C171.89138,17.8891117 193.39238,26.2221117 209.13338,33.8011117 C220.42838,39.2471117 238.22438,49.2621117 248.22138,55.8071117 C251.37438,57.8881117 269.82538,71.4451117 272.69138,73.8281117 C278.67038,78.7161117 286.49038,85.7421117 292.15338,91.3611117 C303.10938,102.218112 316.73638,118.860112 323.35638,132.069112 C324.94938,135.232112 326.18338,138.344112 328.23838,142.010112 C328.94538,143.266112 331.96938,150.778112 332.47238,152.948112 C332.97038,155.095112 333.70038,158.251112 333.80338,158.376112 C333.94938,159.529112 335.35138,165.983112 335.24138,168.471112 M707.56438,151.524112 C693.69538,154.722112 657.22438,156.498112 657.22438,156.498112 L652.62538,170.904112 C652.62538,170.904112 670.85138,169.348112 684.11038,170.733112 C684.11038,170.733112 688.40638,170.234112 688.91138,175.610112 C689.08238,180.624112 688.48538,186.004112 688.48538,186.004112 C688.48538,186.004112 688.21038,189.259112 683.59738,190.087112 C678.59838,190.920112 644.31338,192.246112 644.31338,192.246112 L638.76138,211.024112 C638.76138,211.024112 636.69838,215.365112 641.32238,214.126112 C645.61838,212.976112 681.54238,206.235112 686.22138,207.205112 C691.23538,208.450112 696.78438,215.135112 695.18038,221.227112 C693.26838,228.778112 657.41338,251.645112 635.57838,250.049112 C635.57838,250.049112 624.10438,250.789112 614.40638,235.304112 C605.37438,220.548112 617.82938,192.608112 617.82938,192.608112 C617.82938,192.608112 612.12038,179.565112 616.25738,175.144112 C616.25738,175.144112 618.71938,172.910112 625.89638,172.405112 L634.68438,154.224112 C634.68438,154.224112 624.67438,154.913112 618.71938,147.549112 C613.17238,140.563112 612.70738,137.352112 616.96038,135.423112 C621.50838,133.177112 663.19438,125.569112 691.87938,126.534112 C691.87938,126.534112 701.84838,125.555112 710.49438,142.847112 C710.49638,142.848112 714.68438,149.841112 707.56438,151.524112 M599.67338,221.430112 C595.99738,230.077112 586.28638,239.305112 574.22238,233.569112 C562.31338,227.821112 543.34438,188.997112 543.34438,188.997112 C543.34438,188.997112 536.14338,174.520112 534.75838,174.893112 C534.75838,174.893112 533.20238,172.066112 532.24838,187.886112 C531.25638,203.639112 532.43938,234.356112 526.15538,239.191112 C520.20238,244.039112 512.99438,242.109112 509.25638,236.445112 C505.85838,230.865112 504.44438,217.606112 506.29838,194.319112 C508.47738,170.987112 513.89738,146.163112 520.82238,138.433112 C527.73738,130.755112 533.28938,136.329112 535.45338,138.351112 C535.45338,138.351112 544.70338,146.735112 559.95738,171.354112 L562.64938,175.908112 C562.64938,175.908112 576.51138,199.167112 577.95938,199.113112 C577.95938,199.113112 579.09238,200.182112 580.10238,199.414112 C581.55738,198.998112 580.97038,191.540112 580.97038,191.540112 C580.97038,191.540112 578.09438,166.192112 565.44838,123.288112 C565.44838,123.288112 563.53638,117.938112 564.82938,112.925112 C566.11338,107.859112 571.19138,110.237112 571.19138,110.237112 C571.19138,110.237112 590.79138,120.092112 600.30538,152.003112 C609.75638,183.924112 603.40538,212.718112 599.67338,221.430112 M810.61838,202.318112 C801.69638,217.885112 776.50838,250.481112 743.03438,242.785112 C731.98038,269.591112 722.69438,296.708112 717.38438,337.284112 C717.38438,337.284112 716.21738,345.169112 709.66438,342.430112 C703.17038,340.157112 692.47338,329.360112 690.30938,314.423112 C687.98138,294.802112 696.71638,261.633112 714.56938,223.600112 C709.36238,215.135112 705.81238,203.041112 708.85138,185.820112 C708.85138,185.820112 713.33538,153.841112 745.45238,125.018112 C745.45238,125.018112 749.30238,121.693112 751.53438,122.717112 C753.99338,123.748112 752.85438,134.154112 750.90338,139.214112 C748.87638,144.245112 734.57838,168.998112 734.57838,168.998112 C734.57838,168.998112 725.65938,185.721112 728.16938,198.911112 C745.01338,173.014112 783.30338,120.792112 807.03638,137.260112 C815.00838,142.964112 818.683387,155.371112 818.683387,168.740112 C818.68838,180.483112 815.85638,192.964112 810.61838,202.318112 M803.69238,161.304112 C803.69238,161.304112 802.37138,151.008112 792.30538,162.351112 C783.64738,171.923112 768.03138,189.857112 755.46038,214.216112 C768.65038,212.735112 781.37238,205.579112 785.21938,201.934112 C791.47338,196.385112 806.04238,181.330112 803.69238,161.304112 M995.01938,158.960112 L933.67138,158.960112 C932.44838,138.109112 929.93138,117.798112 925.97438,96.8801117 C925.56838,94.7151117 923.68438,93.1451117 921.49138,93.1451117 L907.34838,93.1451117 C906.11738,93.1451117 904.95238,93.6981117 904.15438,94.6631117 C903.35438,95.6441117 903.04138,96.8921117 903.27638,98.1141117 C907.29538,118.356112 909.84038,138.279112 911.09638,158.980112 L852.07538,158.980112 C849.32538,158.980112 847.09138,161.207112 847.09138,163.946112 L847.09138,176.702112 C847.09138,179.447112 849.32538,181.690112 852.07538,181.690112 L911.94138,181.690112 C911.97938,184.838112 912.01038,187.657112 912.01038,190.302112 C912.01038,208.686112 911.21738,223.830112 909.36438,240.920112 C909.21838,242.241112 909.65038,243.556112 910.54538,244.525112 C911.41338,245.502112 912.66438,246.059112 913.96238,246.059112 L927.07938,246.059112 C929.64038,246.059112 931.76038,244.133112 932.01738,241.584112 C933.80938,224.378112 934.57738,209.046112 934.57738,190.301112 C934.57738,187.666112 934.54938,184.837112 934.51038,181.689112 L995.02038,181.689112 C997.76338,181.689112 1000.00238,179.446112 1000.00238,176.701112 L1000.00238,163.945112 C1000.00238,161.194112 997.76238,158.960112 995.01938,158.960112" id="Shape"></path>
        </g>
    </g>
</svg>