<?xml version="1.0" encoding="UTF-8"?>
<svg width="391px" height="81px" viewBox="0 0 391 81" version="1.1" xmlns="http://www.w3.org/2000/svg" xmlns:xlink="http://www.w3.org/1999/xlink">
    <title>youtube-premium-white</title>
    <g id="Page-1" stroke="none" stroke-width="1" fill="none" fill-rule="evenodd">
        <g id="youtube-premium-white" transform="translate(0.001430, 0.168128)" fill="#FFFFFF" fill-rule="nonzero">
            <path d="M57.6820407,-0.00122815596 C57.7228181,-0.00114196957 57.7668053,-0.00104141879 57.8139394,-0.000924109551 L58.3214198,0.000648791939 C61.3976123,0.011900903 71.0093807,0.0760379364 80.6380457,0.441619026 L81.8668264,0.489945647 C90.2572576,0.831629168 98.4494586,1.41075378 102.116124,2.39232092 C107.059816,3.72252226 110.921419,7.58412468 112.25162,12.5278174 C113.083243,15.6343627 113.625986,19.9125991 113.980198,24.1736589 L114.042545,24.9479431 C114.585372,31.9100338 114.639655,38.6331966 114.645083,39.9082083 L114.645083,40.3403579 C114.639655,41.6153696 114.585372,48.3385324 114.042545,55.300623 L113.980198,56.0749073 C113.625986,60.3359671 113.083243,64.6142035 112.25162,67.7207488 C110.921419,72.6644415 107.059816,76.5260439 102.116124,77.8562453 C98.5388895,78.8138717 90.6564034,79.3884476 82.4852244,79.7331932 L81.2578844,79.7832004 L81.2578844,79.7832004 L80.0292265,79.8298751 C70.2027241,80.1902491 60.5388883,80.2417311 57.9783333,80.2490857 L57.6957622,80.2497943 C57.6550004,80.2498805 57.6174472,80.2499524 57.5831652,80.2500122 L57.0610913,80.2500122 C57.0268093,80.2499524 56.9892561,80.2498805 56.9484943,80.2497943 L56.6659232,80.2490857 C54.212058,80.2420376 45.23452,80.1944627 35.8419935,79.8733322 L34.61503,79.8298751 C25.6074028,79.4995323 16.4630904,78.9096344 12.528133,77.8562453 C7.58444029,76.5260439 3.72283786,72.6644415 2.39263653,67.7207488 C1.51061214,64.425928 0.953544104,59.8130892 0.601711662,55.300623 L0.543385661,54.5283053 C0.0831106414,48.2333964 0.0116886556,42.2940775 0.000605933651,40.6024125 L-0.000826527008,40.3403579 C-0.000927050563,40.3167466 -0.00101082019,40.2950036 -0.00108062822,40.2751621 L-0.00108062822,39.9734041 C-0.00101082019,39.9535626 -0.000927050563,39.9318196 -0.000826527008,39.9082083 L0.000605933651,39.6461537 C0.0123671896,37.8509173 0.0920823687,31.2719842 0.632374138,24.5609476 L0.696781814,23.7862756 C1.05142892,19.654388 1.58621423,15.540225 2.39263653,12.5278174 C3.72283786,7.58412468 7.58444029,3.72252226 12.528133,2.39232092 C16.1947979,1.41075378 24.3823374,0.831629168 32.767268,0.489945647 L33.9952383,0.441619026 C34.4046968,0.426062384 34.8141232,0.411051589 35.2230157,0.396567489 L36.447589,0.354676118 C45.2050242,0.0655040451 53.4836401,0.0109432766 56.2958827,0.000648791939 L56.8029752,-0.000924109551 C56.8500732,-0.00104141879 56.8940267,-0.00114196957 56.9347728,-0.00122815596 Z M45.855568,22.9267535 L45.855568,57.3218126 L75.6427429,40.1242831 L45.855568,22.9267535 Z" id="Combined-Shape"></path>
            <path d="M165.59123,25.464094 L165.59123,28.2371436 C165.59123,42.1023918 159.444303,50.2043186 145.999634,50.2043186 L143.952199,50.2043186 L143.952199,74.468503 L132.970923,74.468503 L132.970923,5.710737 L146.970202,5.710737 C159.772447,5.710737 165.59123,11.1228056 165.59123,25.464094 Z M154.036856,26.4485266 C154.036856,16.4470609 152.234374,14.0714817 146.004256,14.0714817 L143.956821,14.0714817 L143.956821,42.0238221 L145.842495,42.0238221 C151.744469,42.0238221 154.041478,37.7625691 154.041478,28.5005833 L154.036856,26.4485266 Z M191.574705,23.416659 L191.001608,36.4499923 C186.32902,35.4655597 182.47448,36.2050396 180.75519,39.223042 L180.75519,74.468503 L169.857105,74.468503 L169.857105,24.2347086 L178.545993,24.2347086 L179.530426,35.1235502 L179.941762,35.1235502 C181.087956,27.1741413 184.776112,23.157841 189.531892,23.157841 C190.219637,23.1773345 190.903829,23.2640195 191.574705,23.416659 L191.574705,23.416659 Z M204.113511,53.1483729 L204.113511,55.6903351 C204.113511,64.545607 204.603417,67.5774746 208.374764,67.5774746 C211.979729,67.5774746 212.8024,64.8044249 212.88097,59.0549687 L222.632861,59.6280656 C223.372341,70.447581 217.71532,75.2819308 208.12519,75.2819308 C196.487625,75.2819308 193.044421,67.6606661 193.044421,53.8092831 L193.044421,45.0279592 C193.044421,30.4370963 196.89896,23.305737 208.453334,23.305737 C220.090899,23.305737 223.044197,29.3694722 223.044197,44.533432 L223.044197,53.1483729 L204.113511,53.1483729 Z M204.113511,42.818763 L204.113511,46.4237275 L212.391064,46.4237275 L212.391064,42.8418717 C212.391064,33.5983729 211.734776,30.9547323 208.23149,30.9547323 C204.728204,30.9547323 204.113511,33.6630774 204.113511,42.8418717 L204.113511,42.818763 Z M279.360213,36.5100751 L279.360213,74.4592595 L268.060036,74.4592595 L268.060036,37.3512334 C268.060036,33.2517417 266.992412,31.2043067 264.533641,31.2043067 C262.564776,31.2043067 260.762294,32.3505006 259.532908,34.4811271 C259.603163,35.1612132 259.630948,35.845018 259.6161,36.5285621 L259.6161,74.4777465 L248.297436,74.4777465 L248.297436,37.3512334 C248.297436,33.2517417 247.229811,31.2043067 244.771041,31.2043067 C242.802176,31.2043067 241.073641,32.3505006 239.853499,34.4025573 L239.853499,74.4823682 L228.544079,74.4823682 L228.544079,24.2347086 L237.47792,24.2347086 L238.48084,30.6312098 L238.642601,30.6312098 C241.184563,25.7968599 245.284055,23.1717063 250.118405,23.1717063 C254.874185,23.1717063 257.577908,25.5472855 258.807294,29.8131602 C261.432447,25.4687157 265.365556,23.1717063 269.871762,23.1717063 C276.739681,23.1717063 279.360213,28.0892476 279.360213,36.5100751 Z M285.017235,11.3677583 C285.017235,5.95568971 286.9861,4.40278191 291.164161,4.40278191 C295.425414,4.40278191 297.311088,6.20526418 297.311088,11.3677583 C297.311088,16.9415881 295.425414,18.3373564 291.164161,18.3373564 C286.9861,18.3327346 285.017235,16.9415881 285.017235,11.3677583 Z M285.673523,24.2347086 L296.493038,24.2347086 L296.493038,74.4823682 L285.673523,74.4823682 L285.673523,24.2347086 Z M333.45779,24.2347086 L333.45779,74.4823682 L324.60714,74.4823682 L323.622707,68.3354415 L323.377755,68.3354415 C320.835793,73.2529829 317.147637,75.3004178 312.558239,75.3004178 C305.838216,75.3004178 302.801726,71.0391649 302.801726,61.7771791 L302.801726,24.2347086 L314.111147,24.2347086 L314.111147,61.1208907 C314.111147,65.5485266 315.035497,67.3510089 317.309398,67.3510089 C319.387674,67.2660902 321.246771,66.033815 322.134504,64.1527583 L322.134504,24.2347086 L333.45779,24.2347086 Z M390.832187,36.5100751 L390.832187,74.4592595 L379.522767,74.4592595 L379.522767,37.3512334 C379.522767,33.2517417 378.455142,31.2043067 375.996372,31.2043067 C374.027507,31.2043067 372.225024,32.3505006 370.995639,34.4811271 C371.065129,35.1550843 371.092913,35.8326912 371.07883,36.5100751 L371.07883,74.4592595 L359.76941,74.4592595 L359.76941,37.3512334 C359.76941,33.2517417 358.701785,31.2043067 356.243015,31.2043067 C354.27415,31.2043067 352.545615,32.3505006 351.325473,34.4025573 L351.325473,74.4823682 L340.016053,74.4823682 L340.016053,24.2347086 L348.940651,24.2347086 L349.925083,30.6265881 L350.086845,30.6265881 C352.628807,25.7922382 356.728298,23.1670845 361.562648,23.1670845 C366.318428,23.1670845 369.022152,25.5426637 370.251537,29.8085384 C372.876691,25.464094 376.8098,23.1670845 381.316005,23.1670845 C388.225521,23.1717063 390.832187,28.0892476 390.832187,36.5100751 Z" id="path10"></path>
        </g>
    </g>
</svg>